<?xml version="1.0" encoding="utf-8"?>
<svg xmlns="http://www.w3.org/2000/svg" viewBox="0 0 2048 2048" role="img" aria-label="SenseHire">
  <defs>
    <linearGradient id="fgBg" x1="0%" y1="0%" x2="100%" y2="100%">
      <stop offset="0%" stop-color="#10183D"/>
      <stop offset="100%" stop-color="#080C18"/>
    </linearGradient>
    <linearGradient id="fg1" x1="0%" y1="0%" x2="100%" y2="100%">
      <stop offset="0%" stop-color="#02F1B6"/>
      <stop offset="50%" stop-color="#208DAE"/>
      <stop offset="100%" stop-color="#7338A5"/>
    </linearGradient>
    <linearGradient id="fg2" x1="100%" y1="0%" x2="0%" y2="100%">
      <stop offset="0%" stop-color="#208DAE"/>
      <stop offset="50%" stop-color="#0AD8B4"/>
      <stop offset="100%" stop-color="#208DAE"/>
    </linearGradient>
  </defs>
  <rect x="0" y="0" width="2048" height="2048" rx="448" fill="url(#fgBg)"/>
  <g transform="translate(-94,345) scale(1.05)">
    <rect x="400" y="110" width="120" height="120" rx="18" transform="rotate(18 460 170)" fill="#0AD8B4"/>
    <rect x="270" y="240" width="90" height="90" rx="14" transform="rotate(32 315 285)" fill="#1D97AF"/>
    <rect x="185" y="80" width="66" height="66" rx="11" transform="rotate(10 218 113)" fill="#02F1B6"/>
    <path fill="url(#fg1)" d="M1034.4,526.3h372.8c290.2,0,446.9,108.6,446.9,325.8c0,243.9-147.8,389.9-511,389.9H419.8
      l236.8-306.2h715c87.2,0,126.4-24.9,126.4-87.2c0-60.5-39.2-85.5-126.4-85.5h-144L1034.4,526.3z"/>
    <path fill="url(#fg2)" d="M1091.9,763.1H723.6c-306.2,0-446.9-137.1-446.9-341.8C276.7,197,426.3,51,787.7,51h848.6
      l-236.8,309.8H759.2c-85.5,0-126.4,21.4-126.4,81.9c0,60.5,40.9,83.7,126.4,83.7h148.3L1091.9,763.1z"/>
    <path fill="url(#fg2)" d="M913.4,525l236.8,309.8c0,0-241.6,0-241.6,0L671.8,525c0,0-33.4-45.2-26.9-36
      c17,23.7,53.5,36,85.2,36C801.6,525.2,913.4,525,913.4,525z"/>
    <path fill="url(#fg1)" d="M1215.7,763.7L978.9,453.9c0,0,241.6,0,241.6,0l236.8,309.8c0,0,33.4,45.2,26.9,36
      c-17-23.7-53.5-36-85.2-36C1327.5,763.5,1215.7,763.7,1215.7,763.7z"/>
  </g>
</svg>
